<?xml version="1.0" encoding="utf-8"?>
<!-- Generator: Adobe Illustrator 26.0.2, SVG Export Plug-In . SVG Version: 6.00 Build 0)  -->
<svg version="1.1" id="Layer_1" xmlns="http://www.w3.org/2000/svg" xmlns:xlink="http://www.w3.org/1999/xlink" x="0px" y="0px"
	 viewBox="0 0 62 62" style="enable-background:new 0 0 62 62;" xml:space="preserve">
<path d="M46.3,62c-8,0-14.6-6.5-14.6-14.6s6.5-14.6,14.6-14.6s14.6,6.5,14.6,14.6S54.3,62,46.3,62z M46.3,34.8
	c-7,0-12.6,5.7-12.6,12.6c0,7,5.7,12.6,12.6,12.6c7,0,12.6-5.7,12.6-12.6C58.9,40.5,53.3,34.8,46.3,34.8z M31.5,62H2.1
	c-0.5,0-1-0.4-1-1V1c0-0.5,0.4-1,1-1h44.2c0.5,0,1,0.4,1,1v25.1c0,0.5-0.4,1-1,1s-1-0.4-1-1V1.9H3.1v58.1h28.4c0.5,0,1,0.4,1,1
	S32,62,31.5,62z M45,51C45,51,44.9,51,45,51c-0.3,0-0.5-0.1-0.7-0.3l-2.5-2.6c-0.4-0.4-0.4-1,0-1.4c0.4-0.4,1-0.4,1.4,0l1.8,1.9
	l4.5-4.5c0.4-0.4,1-0.4,1.4,0c0.4,0.4,0.4,1,0,1.4l-5.2,5.2C45.5,50.9,45.2,51,45,51z M26.8,40.5H11.2c-0.5,0-1-0.4-1-1s0.4-1,1-1
	h15.7c0.5,0,1,0.4,1,1S27.4,40.5,26.8,40.5z M30,30.6H11.2c-0.5,0-1-0.4-1-1s0.4-1,1-1H30c0.5,0,1,0.4,1,1S30.5,30.6,30,30.6z
	 M37.2,20.8H11.2c-0.5,0-1-0.4-1-1s0.4-1,1-1h26.1c0.5,0,1,0.4,1,1S37.8,20.8,37.2,20.8z M37.2,11H11.2c-0.5,0-1-0.4-1-1s0.4-1,1-1
	h26.1c0.5,0,1,0.4,1,1S37.8,11,37.2,11z"/>
</svg>
