<?xml version="1.0" encoding="utf-8"?>
<!-- Generator: Adobe Illustrator 26.0.2, SVG Export Plug-In . SVG Version: 6.00 Build 0)  -->
<svg version="1.1" id="Layer_1" xmlns="http://www.w3.org/2000/svg" xmlns:xlink="http://www.w3.org/1999/xlink" x="0px" y="0px"
	 viewBox="0 0 62 62" style="enable-background:new 0 0 62 62;" xml:space="preserve">
<path d="M42,62H20c-4.5,0-8.1-3.6-8.1-8l-1.2-34.3h-0.4c-3.5,0-6.4-2.9-6.4-6.4c0-3.5,2.9-6.4,6.4-6.4h9.3V4.7
	c0-2.6,2.1-4.7,4.7-4.7h13.5c2.6,0,4.7,2.1,4.7,4.7v2.2h9.3c3.5,0,6.4,2.9,6.4,6.4c0,3.5-2.9,6.4-6.4,6.4h-0.4l-1.2,34.4
	C50.1,58.4,46.5,62,42,62z M12.6,19.7L13.8,54c0,3.4,2.8,6.1,6.2,6.1h22c3.4,0,6.2-2.7,6.2-6l1.2-34.3H12.6z M10.3,8.8
	c-2.5,0-4.5,2-4.5,4.5s2,4.5,4.5,4.5h41.5c2.5,0,4.5-2,4.5-4.5s-2-4.5-4.5-4.5h-9.9c-0.2,0.1-0.5,0.1-0.8,0H20.7c-0.1,0-0.2,0-0.3,0
	H10.3z M21.5,6.9h19V4.7c0-1.5-1.2-2.8-2.8-2.8H24.2c-1.5,0-2.8,1.2-2.8,2.8V6.9z M36.5,49.7c-0.5,0-1-0.4-1-1V30.9c0-0.5,0.4-1,1-1
	s1,0.4,1,1v17.8C37.4,49.2,37,49.7,36.5,49.7z M25.7,49.7c-0.5,0-1-0.4-1-1V30.9c0-0.5,0.4-1,1-1s1,0.4,1,1v17.8
	C26.7,49.2,26.2,49.7,25.7,49.7z"/>
</svg>
