<?xml version="1.0" encoding="utf-8"?>
<!-- Generator: Adobe Illustrator 26.0.2, SVG Export Plug-In . SVG Version: 6.00 Build 0)  -->
<svg version="1.1" id="Layer_1" xmlns="http://www.w3.org/2000/svg" xmlns:xlink="http://www.w3.org/1999/xlink" x="0px" y="0px"
	 viewBox="0 0 62 62" style="enable-background:new 0 0 62 62;" xml:space="preserve">
<path d="M1,62c-0.3,0-0.5-0.1-0.7-0.3c-0.3-0.3-0.4-0.7-0.2-1l8.5-21.4c0-0.1,0.1-0.2,0.2-0.3L45.9,1.7C47,0.6,48.5,0,50.1,0
	c1.6,0,3.1,0.6,4.2,1.7l6,6c2.3,2.3,2.3,6.1,0,8.4L23.1,53.4c-0.1,0.1-0.2,0.2-0.3,0.2L1.3,61.9C1.2,62,1.1,62,1,62z M9.9,41
	L2.7,59.3l18.4-7.2L9.9,41z M11.1,39.4L22.7,51l36.2-36.3c1.6-1.6,1.6-4.1,0-5.7l-6-6c-0.8-0.8-1.8-1.2-2.8-1.2
	c-1.1,0-2.1,0.4-2.8,1.2L11.1,39.4z M37.9,25.2c-0.2,0-0.5-0.1-0.7-0.3c-0.4-0.4-0.4-1,0-1.4l10.7-10.7c0.4-0.4,1-0.4,1.4,0
	c0.4,0.4,0.4,1,0,1.4L38.5,24.9C38.3,25.1,38.1,25.2,37.9,25.2z"/>
</svg>
