<?xml version="1.0" encoding="utf-8"?>
<!-- Generator: Adobe Illustrator 26.0.2, SVG Export Plug-In . SVG Version: 6.00 Build 0)  -->
<svg version="1.1" id="Layer_1" xmlns="http://www.w3.org/2000/svg" xmlns:xlink="http://www.w3.org/1999/xlink" x="0px" y="0px"
	 viewBox="0 0 62 62" style="enable-background:new 0 0 62 62;" xml:space="preserve">
<path d="M17.7,62H11c-1.7,0-3.2-1.3-3.4-3L6,44.5c0-0.4-0.3-0.8-0.6-1.1L1,40.6c-0.6-0.4-1-1.1-1-1.9V26.9c0-4,3.2-7.2,7.2-7.2h3.6
	c0.3,0,0.5,0.1,0.7,0.3l3.2,3.2l2.4-3.1c0.2-0.2,0.5-0.4,0.8-0.4h21.8c2,0,3.7,1.7,3.7,3.7c0,1.7-1.2,3.2-2.9,3.6l-16.1,3.5
	c-0.5,0.1-0.8,0.5-0.9,1l0,0L20.5,59C20.4,60.7,19.2,62,17.7,62z M7.2,21.6c-2.9,0-5.2,2.3-5.2,5.2v11.8c0,0.1,0.1,0.2,0.1,0.3
	l4.4,2.9c0.8,0.6,1.4,1.5,1.5,2.5l1.6,14.4c0.1,0.7,0.7,1.3,1.5,1.3h6.7c0.5,0,0.9-0.6,0.9-1.3l2.9-27.5c0.1-1.3,1.1-2.4,2.4-2.7
	L40,25.1c0.8-0.2,1.4-0.9,1.4-1.7c0-1-0.8-1.8-1.8-1.8H18.3l-2.8,3.6c-0.2,0.2-0.4,0.4-0.7,0.4c-0.3,0-0.5-0.1-0.7-0.3l-3.7-3.7H7.2
	z M22.5,31.3L22.5,31.3L22.5,31.3z M61,45.1H26.6c-0.5,0-1-0.4-1-1s0.4-1,1-1h33.5V1.9H24.6c-0.5,0-1-0.4-1-1s0.4-1,1-1H61
	c0.5,0,1,0.4,1,1v43.2C62,44.7,61.6,45.1,61,45.1z M14.8,18.7c-4.9,0-8.8-4-8.8-8.8C5.9,5,9.9,1,14.8,1s8.8,4,8.8,8.8
	C23.6,14.7,19.6,18.7,14.8,18.7z M14.8,2.9c-3.8,0-6.9,3.1-6.9,6.9s3.1,6.9,6.9,6.9s6.9-3.1,6.9-6.9S18.6,2.9,14.8,2.9z M46.3,15.1
	H31.9c-0.5,0-1-0.4-1-1s0.4-1,1-1h14.4c0.5,0,1,0.4,1,1S46.8,15.1,46.3,15.1z M35.8,8.5h-4c-0.5,0-1-0.4-1-1s0.4-1,1-1h4
	c0.5,0,1,0.4,1,1S36.4,8.5,35.8,8.5z"/>
</svg>
