<?xml version="1.0" encoding="utf-8"?>
<!-- Generator: Adobe Illustrator 26.0.2, SVG Export Plug-In . SVG Version: 6.00 Build 0)  -->
<svg version="1.1" id="Layer_1" xmlns="http://www.w3.org/2000/svg" xmlns:xlink="http://www.w3.org/1999/xlink" x="0px" y="0px"
	 viewBox="0 0 62 62" style="enable-background:new 0 0 62 62;" xml:space="preserve">
<path d="M56,62H6c-3.3,0-6-2.7-6-6V19.4c0-0.5,0.4-1,1-1s1,0.4,1,1V56c0,2.2,1.8,4.1,4.1,4.1h24.3c-0.1-0.2-0.2-0.4-0.2-0.6v-0.2
	C28.5,53.5,12.9,55,7,56c-0.3,0.1-0.6,0-0.8-0.2c-0.2-0.2-0.3-0.5-0.3-0.7V11c0-0.4,0.3-0.8,0.7-0.9c10.7-3,24.1-0.8,24.6-0.7
	c0.5,0.1,0.8,0.5,0.8,1V50c4.4-4.2,13.9-7.7,16.5-8.6v-39c-9.3,3.7-12.8,7.2-12.9,7.3c-0.4,0.4-1,0.4-1.4,0c-0.4-0.4-0.4-1,0-1.4
	c0.2-0.2,4.1-4.2,14.9-8.2C49.4,0,49.7,0,50,0.2c0.3,0.2,0.4,0.5,0.4,0.8V42c0,0.4-0.3,0.8-0.7,0.9c-4.1,1.4-15.3,5.9-17.7,10v1.9
	c0.1-0.1,0.3-0.2,0.4-0.3c5.4-4.3,18.8-2.2,22.9-1.5V12.7L53,11.9c-0.5-0.2-0.8-0.7-0.6-1.2c0.2-0.5,0.7-0.8,1.2-0.6l2.9,1
	c0.4,0.1,0.7,0.5,0.7,0.9v42.2c0,0.3-0.1,0.6-0.4,0.8c-0.2,0.2-0.5,0.3-0.8,0.2c-0.2,0-16.9-3.6-22.4,0.9c-1.1,0.9-1.6,2-1.6,3.4
	c0,0.2-0.1,0.5-0.2,0.6H56c2.2,0,4.1-1.8,4.1-4.1V19.4c0-0.5,0.4-1,1-1s1,0.4,1,1V56C62,59.3,59.3,62,56,62z M18.1,53.1
	c4.5,0,9.3,0.6,11.9,2.8v-3.1c0,0,0,0,0,0V11.1c-3-0.4-13.6-1.6-22.3,0.6v42.2C9.8,53.6,13.9,53.1,18.1,53.1z M12.6,46
	c-0.3,0-0.6-0.1-0.8-0.4c-0.3-0.4-0.2-1,0.2-1.3c0.2-0.2,5.9-4.1,13.5-1.1c0.5,0.2,0.7,0.8,0.5,1.3c-0.2,0.5-0.8,0.7-1.3,0.5
	c-6.6-2.6-11.6,0.8-11.7,0.8C13,46,12.8,46,12.6,46z M35.8,41c-0.3,0-0.6-0.2-0.8-0.5c-0.3-0.5-0.1-1.1,0.3-1.3
	c0.2-0.1,5-3.1,9.1-3.1c0,0,0.1,0,0.1,0c0.5,0,1,0.4,1,1c0,0.5-0.4,1-1,1c0,0-0.1,0-0.1,0c-3.5,0-8.1,2.8-8.1,2.8
	C36.2,41,36,41,35.8,41z M12.6,40c-0.3,0-0.6-0.1-0.8-0.4c-0.3-0.4-0.2-1,0.2-1.3c0.2-0.2,5.9-4.1,13.5-1.1c0.5,0.2,0.7,0.8,0.5,1.3
	s-0.8,0.7-1.3,0.5c-6.6-2.6-11.6,0.8-11.7,0.8C13,40,12.8,40,12.6,40z M35.8,35c-0.3,0-0.6-0.2-0.8-0.5c-0.3-0.5-0.1-1.1,0.3-1.3
	c0.2-0.1,5-3.1,9.1-3.1c0,0,0.1,0,0.1,0c0.5,0,1,0.4,1,1c0,0.5-0.4,1-1,1c0,0-0.1,0-0.1,0c-3.5,0-8.1,2.8-8.1,2.8
	C36.2,35,36,35,35.8,35z M12.6,34c-0.3,0-0.6-0.1-0.8-0.4c-0.3-0.4-0.2-1,0.2-1.3c0.2-0.2,5.9-4.1,13.5-1.1c0.5,0.2,0.7,0.8,0.5,1.3
	c-0.2,0.5-0.8,0.7-1.3,0.5c-6.6-2.6-11.5,0.7-11.7,0.8C13,33.9,12.8,34,12.6,34z M35.8,29c-0.3,0-0.6-0.2-0.8-0.5
	c-0.3-0.5-0.1-1.1,0.3-1.3c0.2-0.1,5-3.1,9.1-3.1c0,0,0.1,0,0.1,0c0.5,0,1,0.4,1,1c0,0.5-0.4,1-1,1c0,0-0.1,0-0.1,0
	c-3.5,0-8.1,2.8-8.1,2.8C36.2,28.9,36,29,35.8,29z M12.6,28c-0.3,0-0.6-0.1-0.8-0.4c-0.3-0.4-0.2-1,0.2-1.3
	c0.2-0.2,5.9-4.1,13.5-1.1c0.5,0.2,0.7,0.8,0.5,1.3c-0.2,0.5-0.8,0.7-1.3,0.5c-6.6-2.6-11.5,0.7-11.7,0.8C13,27.9,12.8,28,12.6,28z
	 M35.8,23c-0.3,0-0.6-0.2-0.8-0.5c-0.3-0.5-0.1-1.1,0.3-1.3c0.2-0.1,5.2-3.2,9.2-3.1c0.5,0,1,0.4,1,1c0,0.5-0.4,1-1,1
	c0,0-0.1,0-0.1,0c-3.5,0-8.1,2.8-8.1,2.8C36.2,22.9,36,23,35.8,23z M12.6,22c-0.3,0-0.6-0.1-0.8-0.4c-0.3-0.4-0.2-1,0.2-1.3
	c0.2-0.2,5.9-4.1,13.5-1.1c0.5,0.2,0.7,0.8,0.5,1.3c-0.2,0.5-0.8,0.7-1.3,0.5c-6.6-2.6-11.5,0.7-11.7,0.8C13,21.9,12.8,22,12.6,22z
	 M35.8,17c-0.3,0-0.6-0.2-0.8-0.5c-0.3-0.5-0.1-1.1,0.3-1.3c0.2-0.1,5-3.1,9.1-3.1c0,0,0.1,0,0.1,0c0.5,0,1,0.4,1,1c0,0.5-0.4,1-1,1
	c0,0-0.1,0-0.1,0c-3.5,0-8.1,2.8-8.1,2.8C36.2,16.9,36,17,35.8,17z"/>
</svg>
