<?xml version="1.0" encoding="utf-8"?>
<!-- Generator: Adobe Illustrator 26.0.2, SVG Export Plug-In . SVG Version: 6.00 Build 0)  -->
<svg version="1.1" id="Layer_1" xmlns="http://www.w3.org/2000/svg" xmlns:xlink="http://www.w3.org/1999/xlink" x="0px" y="0px"
	 viewBox="0 0 62 62" style="enable-background:new 0 0 62 62;" xml:space="preserve">
<path d="M21.3,62c-0.3,0-0.5-0.1-0.7-0.3l-4.6-4.6H7.2c-4,0-7.2-3.3-7.2-7.2V30.5c0-4,3.3-7.2,7.2-7.2h15.4c0.5,0,1,0.4,1,1
	s-0.4,1-1,1H7.2c-2.9,0-5.3,2.4-5.3,5.3v19.4c0,2.9,2.4,5.3,5.3,5.3h9.2c0.3,0,0.5,0.1,0.7,0.3l3.2,3.2v-2.5c0-0.5,0.4-1,1-1h12.1
	c2.9,0,5.3-2.4,5.3-5.3V38.3c0-0.5,0.4-1,1-1s1,0.4,1,1v11.6c0,4-3.3,7.2-7.2,7.2H22.3V61c0,0.4-0.2,0.7-0.6,0.9
	C21.6,62,21.4,62,21.3,62z M26.2,47.5H7.8c-0.5,0-1-0.4-1-1s0.4-1,1-1h18.4c0.5,0,1,0.4,1,1S26.7,47.5,26.2,47.5z M31,40.7H7.8
	c-0.5,0-1-0.4-1-1s0.4-1,1-1H31c0.5,0,1,0.4,1,1S31.5,40.7,31,40.7z M55.2,36.8c-0.2,0-0.4-0.1-0.6-0.2L49.8,33
	c-1.9,0.6-3.8,0.9-5.7,0.9c-9.9,0-17.9-7.6-17.9-17s8-17,17.9-17S62,7.6,62,17c0,4.7-2.1,9.3-5.8,12.5v6.4c0,0.4-0.2,0.7-0.5,0.9
	C55.5,36.8,55.4,36.8,55.2,36.8z M50,31c0.2,0,0.4,0.1,0.6,0.2l3.7,2.8V29c0-0.3,0.1-0.6,0.4-0.7c3.5-2.9,5.5-7,5.5-11.3
	c0-8.3-7.2-15-16-15s-16,6.7-16,15s7.2,15,16,15c1.9,0,3.8-0.3,5.6-1C49.8,31,49.9,31,50,31z M24.2,33.9H7.8c-0.5,0-1-0.4-1-1
	s0.4-1,1-1h16.5c0.5,0,1,0.4,1,1S24.8,33.9,24.2,33.9z M44.1,24.8c-0.5,0-1-0.4-1-1v-0.1c0-0.5,0.4-1,1-1s1,0.4,1,1v0.1
	C45,24.3,44.6,24.8,44.1,24.8z M44.1,21.5c-0.5,0-1-0.4-1-1v-2.4c0-0.9,0.6-1.6,1.5-1.8c1.2-0.2,2.1-1.3,2.1-2.6
	c0-1.4-1.2-2.6-2.6-2.6c-1.4,0-2.6,1.2-2.6,2.6c0,0.5-0.4,1-1,1s-1-0.4-1-1c0-2.5,2-4.6,4.6-4.6c2.5,0,4.6,2.1,4.6,4.6
	c0,2.1-1.5,4-3.6,4.5v2.3C45,21,44.6,21.5,44.1,21.5z"/>
</svg>
