<?xml version="1.0" encoding="utf-8"?>
<!-- Generator: Adobe Illustrator 26.0.2, SVG Export Plug-In . SVG Version: 6.00 Build 0)  -->
<svg version="1.1" id="Layer_1" xmlns="http://www.w3.org/2000/svg" xmlns:xlink="http://www.w3.org/1999/xlink" x="0px" y="0px"
	 viewBox="0 0 62 62" style="enable-background:new 0 0 62 62;" xml:space="preserve">
<path d="M38.8,62c-0.4,0-0.9-0.1-1.2-0.4c-0.7-0.5-1-1.3-0.8-2.1l1.3-7.7c0-0.1,0-0.1-0.1-0.2l-5.6-5.5c-0.6-0.6-0.8-1.4-0.5-2.2
	c0.3-0.8,0.9-1.3,1.7-1.4l7.8-1.1c0.1,0,0.1,0,0.1-0.1l3.5-7c0.4-0.7,1.1-1.2,1.9-1.2c0,0,0,0,0,0c0.8,0,1.5,0.5,1.9,1.2l3.5,7
	c0,0.1,0.1,0.1,0.1,0.1l7.8,1.1c0.8,0.1,1.5,0.7,1.7,1.4c0.3,0.8,0,1.6-0.5,2.2l-5.6,5.5c0,0-0.1,0.1-0.1,0.2l1.3,7.7
	c0.1,0.8-0.2,1.6-0.8,2.1c-0.7,0.5-1.5,0.5-2.2,0.2l-7-3.7c-0.1,0-0.1,0-0.2,0l-7,3.7C39.5,61.9,39.2,62,38.8,62z M46.9,56.1
	c0.3,0,0.7,0.1,1,0.2l7,3.7c0.1,0,0.1,0,0.2,0c0.1,0,0.1-0.1,0.1-0.2l-1.3-7.7c-0.1-0.7,0.1-1.4,0.6-1.9l5.6-5.5
	c0.1-0.1,0.1-0.1,0-0.2s-0.1-0.1-0.2-0.1l-7.8-1.1c-0.7-0.1-1.3-0.5-1.6-1.2l-3.5-7c-0.1-0.1-0.3-0.1-0.3,0c0,0,0,0,0,0l-3.5,7
	c-0.3,0.6-0.9,1.1-1.6,1.2l-7.8,1.1c-0.1,0-0.1,0.1-0.2,0.1c0,0.1,0,0.1,0,0.2l5.6,5.5c0.5,0.5,0.7,1.2,0.6,1.9l-1.3,7.7
	c0,0.1,0,0.1,0.1,0.2c0.1,0,0.1,0.1,0.2,0l7-3.7C46.2,56.2,46.5,56.1,46.9,56.1z M45.8,34.6L45.8,34.6L45.8,34.6z M31.8,53.3H1
	c-0.5,0-1-0.4-1-1V1c0-0.5,0.4-1,1-1h37.8c0.5,0,1,0.4,1,1v6.8h15.5c0.5,0,1,0.4,1,1v27.6c0,0.5-0.4,1-1,1s-1-0.4-1-1V9.7H39.7v5.8
	h9.5c0.5,0,1,0.4,1,1c0,0.5-0.4,1-1,1h-9.5v5.8h9.5c0.5,0,1,0.4,1,1s-0.4,1-1,1h-9.5v10.7c0,0.5-0.4,1-1,1s-1-0.4-1-1V1.9H1.9v49.4
	h29.9c0.5,0,1,0.4,1,1S32.3,53.3,31.8,53.3z M31,32.9H8.7c-0.5,0-1-0.4-1-1s0.4-1,1-1H31c0.5,0,1,0.4,1,1S31.5,32.9,31,32.9z
	 M31,25.2H8.7c-0.5,0-1-0.4-1-1s0.4-1,1-1H31c0.5,0,1,0.4,1,1S31.5,25.2,31,25.2z M31,17.4H8.7c-0.5,0-1-0.4-1-1c0-0.5,0.4-1,1-1H31
	c0.5,0,1,0.4,1,1C32,17,31.5,17.4,31,17.4z M31,9.7H8.7c-0.5,0-1-0.4-1-1c0-0.5,0.4-1,1-1H31c0.5,0,1,0.4,1,1
	C32,9.3,31.5,9.7,31,9.7z"/>
</svg>
