<?xml version="1.0" encoding="utf-8"?>
<!-- Generator: Adobe Illustrator 26.0.2, SVG Export Plug-In . SVG Version: 6.00 Build 0)  -->
<svg version="1.1" id="Layer_1" xmlns="http://www.w3.org/2000/svg" xmlns:xlink="http://www.w3.org/1999/xlink" x="0px" y="0px"
	 viewBox="0 0 62 62" style="enable-background:new 0 0 62 62;" xml:space="preserve">
<path d="M31.4,60.1h28.2l-3.2-8.3c0-0.1-1.3-3.2-6.9-5.3l-7.6-3c-0.4-0.2-0.8-0.4-1.1-0.8c0,0,0,0,0,0l-9.2,5.2l3.6,3.4
	c0.3,0.3,0.4,0.8,0.2,1.2L31.4,60.1z M2.4,60.1h26.1l-4-7.6c-0.2-0.4-0.1-0.9,0.2-1.2l3.6-3.4l-7.5-4.3c-0.2-0.1-0.3-0.3-0.4-0.4
	c-0.1,0.1-0.3,0.1-0.4,0.2l-7.5,3c-5.7,2.1-6.9,5.3-6.9,5.3L2.4,60.1z M26.6,52.2l3.4,6.4l3.4-6.4L30,49.1L26.6,52.2z M21.7,41.9
	c0.1,0,0.1,0,0.2,0.1l8.1,4.6l9.9-5.6c0.1,0,0.2-0.1,0.3-0.1c0,0,0,0,0,0v-4c-3.7,5.2-8.6,6.6-8.9,6.6c-0.2,0-0.3,0-0.5,0
	c-0.3-0.1-5.2-1.4-8.9-6.6v4C21.9,41.2,21.8,41.6,21.7,41.9z M20.4,28.3C20.4,28.3,20.4,28.3,20.4,28.3c2,10,9.2,12.8,10.6,13.3
	c1.4-0.5,8.6-3.2,10.6-13.2c0,0,0,0,0,0c0,0,0-0.1,0-0.1c0.5-2.7,0.7-5,0.6-7c-2,1.1-5.3,2.4-10.9,3.8c0,0-0.1,0-0.1,0
	c0,0-0.1,0-0.1,0c0,0,0,0,0,0l0,0c-0.1,0-0.2,0-0.4,0c-5.6-1.5-9-2.8-11-3.9c-0.1,2,0.1,4.3,0.6,7C20.4,28.2,20.4,28.3,20.4,28.3z
	 M44.2,21.9c0,1.6-0.1,3.5-0.5,5.5c0.7-0.4,1.3-1.6,1.3-3C45,23.3,44.7,22.4,44.2,21.9z M17.8,21.9c-0.5,0.5-0.8,1.4-0.8,2.5
	c0,1.3,0.6,2.5,1.3,3C17.9,25.3,17.8,23.5,17.8,21.9z M12.9,23.1c-0.3,0-0.6,0.3-0.6,0.6s0.3,0.6,0.6,0.6c0.3,0,0.6-0.3,0.6-0.6
	S13.2,23.1,12.9,23.1z M19.8,19c1.5,0.9,4.7,2.4,11.2,4.1c0.1,0,0.2,0,0.3-0.1c6.2-1.6,9.3-3.1,10.8-4c0.2-0.1,0.3-0.2,0.4-0.3
	c0,0,0,0,0,0c0.1,0,0.1-0.1,0.2-0.1c0.4-0.3,0.5-0.7,0.4-1.1c-0.3-0.8-0.8-2-1.6-3.4l-10.1,4.5c-0.2,0.1-0.5,0.1-0.8,0l-10.1-4.5
	c-0.8,1.4-1.3,2.6-1.6,3.4c-0.2,0.4,0,0.9,0.4,1.1c0.1,0,0.1,0.1,0.2,0.1c0,0,0,0,0,0C19.6,18.9,19.7,19,19.8,19z M13.9,21.4
	c0.6,0.3,1.1,0.8,1.4,1.4c0.4-1.4,1.2-2.6,2.3-3.1c-0.6-0.8-0.8-1.8-0.4-2.8c0.3-0.8,0.8-2,1.7-3.5l-4.9-2.1V21.4z M61,62H1
	c-0.3,0-0.6-0.2-0.8-0.4C0,61.3-0.1,61,0.1,60.7l3.7-9.6c0-0.1,1.5-3.9,8-6.4l7.5-3c0.4-0.1,0.6-0.5,0.6-0.8v-7c0-0.1,0-0.2,0.1-0.3
	c-0.5-1.2-1-2.5-1.3-4c-1.9-0.1-3.4-2-3.6-4.5c-0.4,0.8-1.2,1.3-2.2,1.3c-1.4,0-2.5-1.1-2.5-2.5c0-1,0.6-1.9,1.5-2.3v-11l-0.3-0.1
	C11.2,10.1,11,9.7,11,9.4s0.2-0.7,0.6-0.9l19-8.4c0.2-0.1,0.5-0.1,0.8,0l19,8.4C50.8,8.6,51,9,51,9.4s-0.2,0.7-0.6,0.9l-7.1,3.1
	c0.8,1.4,1.4,2.6,1.7,3.5c0.4,1,0.2,2-0.4,2.8c1.5,0.7,2.5,2.6,2.5,4.7c0,2.8-1.6,4.9-3.6,5.1c-0.3,1.5-0.8,2.8-1.3,4
	c0,0.1,0.1,0.2,0.1,0.3v7c0,0.3,0.2,0.7,0.6,0.8l7.5,3c6.6,2.5,8,6.3,8,6.4l3.7,9.6c0.1,0.3,0.1,0.6-0.1,0.9
	C61.7,61.8,61.4,62,61,62z M14.4,9.4L31,16.7l16.6-7.3L31,2L14.4,9.4z M32.4,9.4c0,0.8-0.6,1.5-1.4,1.5s-1.4-0.7-1.4-1.5
	s0.6-1.5,1.4-1.5S32.4,8.6,32.4,9.4z"/>
</svg>
