<?xml version="1.0" encoding="utf-8"?>
<!-- Generator: Adobe Illustrator 26.0.2, SVG Export Plug-In . SVG Version: 6.00 Build 0)  -->
<svg version="1.1" id="Layer_1" xmlns="http://www.w3.org/2000/svg" xmlns:xlink="http://www.w3.org/1999/xlink" x="0px" y="0px"
	 viewBox="0 0 62 62" style="enable-background:new 0 0 62 62;" xml:space="preserve">
<path d="M46.5,62c-0.5,0-1-0.4-1-1v-3.9c0-0.5,0.4-1,1-1s1,0.4,1,1V61C47.4,61.6,47,62,46.5,62z M51.7,61c-0.4,0-0.7-0.2-0.9-0.5
	L49.1,57c-0.2-0.5,0-1.1,0.4-1.3c0.5-0.2,1.1,0,1.3,0.4l1.8,3.5c0.2,0.5,0,1.1-0.4,1.3C52,61,51.8,61,51.7,61z M41.2,61
	c-0.1,0-0.3,0-0.4-0.1c-0.5-0.2-0.7-0.8-0.4-1.3l1.8-3.5c0.2-0.5,0.8-0.7,1.3-0.4c0.5,0.2,0.7,0.8,0.4,1.3l-1.8,3.5
	C41.9,60.8,41.6,61,41.2,61z M46.5,55.7c-1.9,0-3.4-1.5-3.4-3.4c0-1.5,1-2.8,2.4-3.2V20l-11.6-4.2c-0.6,0.9-1.7,1.5-2.8,1.5
	c-1.9,0-3.4-1.5-3.4-3.4c0-1.9,1.5-3.4,3.4-3.4c1.9,0,3.4,1.5,3.4,3.4l12.4,4.4c0.3,0.1,0.5,0.4,0.6,0.7L58.6,14L31,2L3.4,14L31,26
	l11.7-5.1c0.5-0.2,1.1,0,1.3,0.5c0.2,0.5,0,1.1-0.5,1.3l-12.1,5.3c-0.2,0.1-0.5,0.1-0.8,0l-30-13C0.2,14.7,0,14.4,0,14
	c0-0.4,0.2-0.7,0.6-0.9l30-13c0.2-0.1,0.5-0.1,0.8,0l30,13c0.4,0.2,0.6,0.5,0.6,0.9c0,0.4-0.2,0.7-0.6,0.9l-14,6.3V23l13.2-6
	c0.5-0.2,1.1,0,1.3,0.5c0.2,0.5,0,1.1-0.5,1.3l-14,6.3v24c1.4,0.4,2.4,1.7,2.4,3.2C49.8,54.2,48.3,55.7,46.5,55.7z M46.5,50.9
	c-0.8,0-1.4,0.6-1.4,1.4c0,0.8,0.6,1.4,1.4,1.4c0.8,0,1.4-0.6,1.4-1.4C47.9,51.5,47.3,50.9,46.5,50.9z M31,12.6
	c-0.8,0-1.4,0.6-1.4,1.4c0,0.8,0.6,1.4,1.4,1.4c0.4,0,0.8-0.2,1.1-0.5c-0.1-0.2-0.2-0.5-0.1-0.8c0.1-0.2,0.2-0.4,0.4-0.5
	C32.3,13,31.7,12.6,31,12.6z M35.8,46.4h-9.7C17.1,46.4,9.7,39,9.7,30v-2.9c0-0.5,0.4-1,1-1c0.5,0,1,0.4,1,1V30
	c0,8,6.5,14.5,14.5,14.5H30v-9.7c0-0.5,0.4-1,1-1c0.5,0,1,0.4,1,1v9.7h3.9c2.5,0,5-0.7,7.2-2c0.5-0.3,1.1-0.1,1.3,0.4
	c0.3,0.5,0.1,1.1-0.4,1.3C41.5,45.6,38.7,46.4,35.8,46.4z M49.4,38.4c-0.2,0-0.3,0-0.5-0.1c-0.5-0.3-0.6-0.8-0.4-1.3
	c1.2-2.1,1.8-4.6,1.8-7v-2.9c0-0.5,0.4-1,1-1c0.5,0,1,0.4,1,1V30c0,2.8-0.7,5.5-2.1,7.9C50,38.2,49.7,38.4,49.4,38.4z M31,31.9
	c-0.1,0-0.3,0-0.4-0.1l-30-13c-0.5-0.2-0.7-0.8-0.5-1.3C0.3,17,0.9,16.8,1.4,17L31,29.9l11.7-5.1c0.5-0.2,1.1,0,1.3,0.5
	c0.2,0.5,0,1.1-0.5,1.3l-12.1,5.3C31.3,31.9,31.1,31.9,31,31.9z"/>
</svg>
